PathFileType	4	(X/Y/Z)	Kaydara																																																																																																																									
DataRate	CameraRate	NumFrames	NumMarkers	Units	OrigDataRate	OrigDataStartFrame	OrigNumFrames																																																																																																																					
30	30	6	41	mm	30	128	341																																																																																																																					
Frame#	Time	NABA_LFHD			NABA_RFHD			NABA_LBHD			NABA_RBHD			NABA_LFTShould			NABA_RFTShould			NABA_LRRShould			NABA_RRRShould			NABA_T10			NABA_STRN			NABA_TRUN			NABA_LSHO			NABA_LUPA			NABA_LELB			NABA_LFRM			NABA_LWRA			NABA_LWRB			NABA_LFIN			NABA_RSHO			NABA_RUPA			NABA_RELB			NABA_RFRM			NABA_RWRA			NABA_RWRB			NABA_RFIN			NABA_LFWT			NABA_RFWT			NABA_LBWT			NABA_RBWT			NABA_LTHI			NABA_LKNE			NABA_LSHN			NABA_LANK			NABA_LHEE			NABA_LTOE			NABA_RTHI			NABA_RKNE			NABA_RSHN			NABA_RANK			NABA_RHEE			NABA_RTOE		
		X1	Y1	Z1	X2	Y2	Z2	X3	Y3	Z3	X4	Y4	Z4	X5	Y5	Z5	X6	Y6	Z6	X7	Y7	Z7	X8	Y8	Z8	X9	Y9	Z9	X10	Y10	Z10	X11	Y11	Z11	X12	Y12	Z12	X13	Y13	Z13	X14	Y14	Z14	X15	Y15	Z15	X16	Y16	Z16	X17	Y17	Z17	X18	Y18	Z18	X19	Y19	Z19	X20	Y20	Z20	X21	Y21	Z21	X22	Y22	Z22	X23	Y23	Z23	X24	Y24	Z24	X25	Y25	Z25	X26	Y26	Z26	X27	Y27	Z27	X28	Y28	Z28	X29	Y29	Z29	X30	Y30	Z30	X31	Y31	Z31	X32	Y32	Z32	X33	Y33	Z33	X34	Y34	Z34	X35	Y35	Z35	X36	Y36	Z36	X37	Y37	Z37	X38	Y38	Z38	X39	Y39	Z39	X40	Y40	Z40	X41	Y41	Z41
																																																																																																																												
128	4.243	254.35003	1481.20316	-1061.83968	84.47248	1449.73114	-1057.02805	266.42103	1550.24048	-1167.27486	50.45365	1507.67929	-1133.94272	234.98859	1310.53925	-1226.20476	107.82624	1302.57462	-1228.8401	238.08596	1384.92386	-1329.67377	93.1904	1377.45804	-1323.68286	175.18925	1229.93546	-1425.25864	174.66614	1248.51311	-1184.9913	176.0718	1145.66864	-1149.07082	329.67602	1345.51315	-1265.48622	393.86238	1137.06711	-1333.48434	402.91779	1031.90033	-1330.92178	392.4699	952.39838	-1360.62256	341.54251	800.26604	-1291.34811	411.36864	799.05457	-1299.40247	394.66026	739.42574	-1257.88406	25.55565	1335.58807	-1259.66019	-36.32728	1148.21373	-1350.24261	-64.35628	1012.71004	-1316.53946	-67.07654	916.16447	-1312.35168	2.47044	790.24155	-1239.6521	-70.32492	778.39424	-1239.21692	-55.4808	740.98076	-1208.80905	298.52327	939.74709	-1235.32791	32.47007	939.23256	-1243.4436	256.27584	1002.77756	-1405.73196	86.66892	1020.58838	-1413.37952	301.34974	636.58722	-1340.62881	290.56173	495.24555	-1264.77379	232.24628	306.02068	-1217.58659	257.2823	146.75802	-1266.79199	201.1092	94.80853	-1318.99338	221.44701	68.53459	-1129.40201	31.70236	668.07167	-1412.48947	33.83043	489.02214	-1318.00842	45.83465	327.50782	-1412.3555	41.32708	193.54527	-1564.96704	88.61351	184.26889	-1646.04095	73.66841	78.33303	-1500.58289
129	4.277	258.9472	1481.02951	-1046.03142	89.12257	1449.75327	-1041.89194	271.54606	1550.3511	-1151.30493	55.34882	1507.82043	-1118.79601	240.08139	1310.83191	-1210.56343	113.08915	1303.18298	-1213.58269	243.5924	1385.05493	-1314.07959	98.65016	1378.02078	-1308.68256	180.75985	1230.17067	-1409.8085	179.74852	1249.02832	-1169.38652	180.99403	1146.20895	-1133.38112	334.82033	1345.74905	-1249.4062	399.93317	1136.92078	-1315.35248	408.89095	1031.73195	-1312.17407	398.78593	951.83296	-1341.28113	344.85542	800.98099	-1269.75815	415.95528	799.17702	-1277.77878	398.30635	740.14687	-1235.76843	30.89011	1336.37146	-1244.79149	-30.65252	1149.30695	-1335.90286	-59.41042	1013.81622	-1302.59964	-61.71654	916.88576	-1297.43744	7.86922	792.28851	-1222.52747	-64.86664	779.97513	-1222.62115	-50.24281	743.16406	-1191.58142	303.70596	940.04372	-1219.27696	37.57929	939.90852	-1227.42012	261.58985	1002.93137	-1389.58115	91.65591	1020.17746	-1397.85568	304.59202	637.69539	-1329.7374	293.52903	494.75571	-1255.96718	233.6087	304.83614	-1212.2403	257.45218	146.41482	-1264.77547	201.40469	95.93019	-1318.48267	221.1327	68.3009	-1129.08424	35.0169	666.0804	-1391.22482	34.51318	488.63453	-1292.12906	44.09582	330.22884	-1392.09595	39.54073	203.24821	-1550.88516	86.93561	198.1745	-1631.30798	73.09897	78.5612	-1494.99069
130	4.31	263.49106	1480.94315	-1031.29807	93.59804	1449.82544	-1027.51076	276.35403	1550.31464	-1136.38573	60.10869	1508.05405	-1104.47311	245.00631	1310.85754	-1195.76744	118.05021	1303.49701	-1199.05373	248.51189	1384.82758	-1299.48364	103.5294	1378.27789	-1294.3103	185.53133	1229.93324	-1395.06989	184.6423	1249.1256	-1154.8246	185.66668	1146.45584	-1118.49693	339.61433	1345.55084	-1234.65736	405.26524	1136.14304	-1298.34518	414.11808	1030.91812	-1294.06662	404.20963	950.55603	-1322.28607	348.82526	801.22108	-1248.68202	420.20039	798.85826	-1256.09512	401.87683	740.65666	-1213.32993	35.81504	1336.56174	-1230.39078	-25.6195	1149.68994	-1321.94321	-54.67762	1014.21425	-1288.73611	-56.5297	917.05246	-1282.57843	13.1948	793.66096	-1205.66757	-59.37768	781.07315	-1206.18423	-44.79877	744.65309	-1174.51332	308.30597	940.16357	-1204.00467	42.19579	939.89632	-1212.43263	265.53692	1003.02246	-1374.54086	95.80214	1019.46037	-1383.04459	308.18796	638.36803	-1318.004	296.61173	494.25137	-1247.16576	235.30781	303.66543	-1207.10983	258.05456	146.21099	-1262.81601	201.66693	96.78417	-1317.70233	221.06876	68.11919	-1128.87772	38.71423	662.58316	-1368.69476	35.94606	487.79354	-1262.92038	43.97099	332.51408	-1368.07373	38.54381	214.03687	-1533.22189	85.53394	214.22796	-1613.06305	72.38085	81.1022	-1487.78442
131	4.343	267.87241	1480.86456	-1017.47154	97.8267	1450.0885	-1013.69171	280.89584	1550.03922	-1122.54135	64.54558	1508.40057	-1090.73517	249.1848	1310.40604	-1181.70898	122.32121	1303.5791	-1185.20515	252.86983	1384.46945	-1285.50995	107.86762	1378.33786	-1280.62332	189.75723	1229.6566	-1381.02005	188.77281	1248.98895	-1140.79712	189.56404	1146.4399	-1104.29329	343.85738	1345.11948	-1220.4557	409.46205	1135.04738	-1282.37015	418.54458	1029.97498	-1277.0018	408.53001	949.07028	-1304.06876	352.60605	801.32744	-1227.12395	423.8348	798.56773	-1234.93599	405.39272	741.26961	-1191.05667	39.99756	1336.70502	-1216.8116	-21.21367	1149.6122	-1308.21136	-50.09023	1014.14452	-1274.76753	-51.56089	916.81229	-1267.7758	18.37198	794.57573	-1189.06258	-54.09261	781.60995	-1189.88777	-39.60328	745.72678	-1157.80876	312.16644	940.38223	-1189.39812	46.18618	939.48112	-1198.37021	268.86976	1003.15109	-1360.34576	99.58606	1018.56125	-1369.15298	312.36704	638.93768	-1306.67419	299.50224	493.76011	-1238.48198	236.57335	302.61202	-1202.51053	258.96206	146.08175	-1260.79964	202.43752	97.55926	-1317.08862	221.09785	67.97747	-1128.75282	42.27144	658.21388	-1344.86176	37.98364	487.39288	-1231.33316	45.44385	334.89708	-1340.19028	38.89567	225.05777	-1511.13373	85.50524	231.22847	-1590.19806	71.63386	85.43553	-1478.2489
132	4.377	271.82514	1480.61462	-1004.37561	101.62252	1450.40512	-1000.54619	285.05522	1549.70276	-1109.59717	68.6061	1508.84445	-1077.66296	252.70939	1309.96826	-1167.97333	125.68879	1303.61389	-1172.05521	256.71896	1384.08066	-1271.99821	111.70144	1378.3284	-1267.75238	193.86328	1229.33357	-1367.6973	191.96798	1248.7072	-1127.54883	192.34951	1146.2632	-1090.84747	347.31636	1344.6109	-1206.42975	412.8249	1133.87009	-1266.88957	422.06577	1029.01787	-1260.69389	411.92337	947.62711	-1286.49353	355.58105	801.06697	-1207.17812	426.81892	798.2019	-1214.46068	408.66512	742.05917	-1169.44839	43.61385	1336.84982	-1204.00955	-17.61873	1149.22768	-1294.78607	-45.83408	1013.82393	-1260.80307	-46.95723	916.52954	-1253.10867	23.25238	795.28557	-1173.15529	-49.18073	782.02621	-1173.87444	-34.5996	746.5464	-1141.54076	315.57344	940.37514	-1175.24826	49.44306	939.30122	-1185.14549	272.09015	1003.05603	-1347.00714	103.3638	1017.63329	-1356.22833	315.52467	639.33952	-1296.59836	301.54505	493.05138	-1231.07216	237.39422	301.72157	-1198.50319	259.20029	145.88128	-1259.17946	202.68572	98.27946	-1316.45935	220.96296	67.79647	-1128.59367	45.09033	654.20837	-1320.37628	40.6317	488.10696	-1198.34969	48.11049	337.49607	-1309.34006	40.62389	234.94957	-1484.75311	85.92606	246.83025	-1562.45316	71.65359	91.42754	-1462.86224
133	4.41	275.10784	1480.25162	-992.006	104.94674	1450.57098	-988.07556	288.5787	1549.25171	-1097.17056	71.9421	1509.00726	-1065.16823	255.57882	1309.71512	-1155.05844	128.53961	1303.60199	-1159.72153	260.17658	1383.76129	-1259.19106	115.09836	1378.25226	-1255.5587	197.57582	1229.00391	-1355.04028	194.52902	1248.56018	-1114.86534	194.66614	1146.21178	-1078.13171	350.31059	1344.27628	-1192.96982	415.86262	1132.81189	-1251.60316	424.93225	1028.19908	-1244.6946	414.72343	946.38168	-1269.60548	358.01632	801.2355	-1187.59727	429.10507	798.05779	-1194.8185	411.2175	742.91847	-1148.81371	46.65559	1336.97723	-1191.98036	-14.4162	1148.74168	-1281.85577	-42.11621	1013.50418	-1247.1183	-42.93181	916.25732	-1238.78456	27.86981	795.91766	-1157.79099	-44.58749	782.38907	-1158.37585	-29.94447	747.17636	-1125.78491	318.90583	940.31845	-1161.49414	52.57432	939.45244	-1172.2551	275.44363	1002.70859	-1334.04572	106.57808	1016.55914	-1343.75549	317.40063	639.66595	-1287.4968	303.20322	492.36916	-1224.29298	237.96698	300.70673	-1194.68704	259.22815	145.79379	-1257.61314	202.47105	99.0634	-1315.76218	220.99384	67.5429	-1128.37257	47.58639	651.16127	-1295.69046	43.72077	490.20317	-1165.52574	51.63895	340.65117	-1277.3185	42.89441	243.52831	-1455.94284	89.0318	257.22683	-1533.70834	66.80601	101.78127	-1436.19659
